<svg xmlns="http://www.w3.org/2000/svg" version="1.1" xmlns:xlink="http://www.w3.org/1999/xlink" xmlns:svgjs="http://svgjs.dev/svgjs" width="1500" height="1000" viewBox="0 0 1000 625"><g transform="matrix(1,0,0,1,0,0)"><svg viewBox="0 0 576 360" data-background-color="#221e3b" preserveAspectRatio="xMidYMid meet" height="625" width="1000" xmlns="http://www.w3.org/2000/svg" xmlns:xlink="http://www.w3.org/1999/xlink"><g id="tight-bounds" transform="matrix(1,0,0,1,0,0)"><svg viewBox="0 0 576 360" height="360" width="576"><g><svg></svg></g><g><svg viewBox="0 0 576 360" height="360" width="576"><g><path xmlns="http://www.w3.org/2000/svg" d="M132.115 90l155.885-90 155.885 90v180l-155.885 90-155.885-90z" fill="#ff0066" fill-rule="nonzero" stroke="none" stroke-width="1" stroke-linecap="butt" stroke-linejoin="miter" stroke-miterlimit="10" stroke-dasharray="" stroke-dashoffset="0" font-family="none" font-weight="none" font-size="none" text-anchor="none" style="mix-blend-mode: normal" data-fill-palette-color="tertiary"></path></g><g transform="matrix(1,0,0,1,172.8,128.27479484173506)"><svg viewBox="0 0 230.4 103.45041031652988" height="103.45041031652988" width="230.4"><g><svg viewBox="0 0 230.40000000000003 103.4504103165299" height="103.45041031652988" width="230.4"><g><svg viewBox="0 0 230.40000000000003 103.4504103165299" height="103.4504103165299" width="230.40000000000003"><g><svg viewBox="0 0 230.40000000000003 103.4504103165299" height="103.4504103165299" width="230.40000000000003"><g><svg viewBox="0 0 230.40000000000003 103.4504103165299" height="103.4504103165299" width="230.40000000000003"><g transform="matrix(1,0,0,1,0,0)"><svg width="230.40000000000003" viewBox="4.75 -38.29999923706055 85.30000305175781 38.29999923706055" height="103.4504103165299" data-palette-color="#282828"><path d="M11.75 0L4.75 0 4.75-38.3 4.8-38.3 25.25-9.3 22.15-10 42.55-38.3 42.65-38.3 42.65 0 35.4 0 35.4-21.95 35.85-18.2 23.4-0.5 23.3-0.5 10.5-18.2 11.75-21.65 11.75 0ZM59.15 0L52.15 0 52.15-38.3 52.2-38.3 72.65-9.3 69.55-10 89.95-38.3 90.05-38.3 90.05 0 82.8 0 82.8-21.95 83.25-18.2 70.8-0.5 70.7-0.5 57.9-18.2 59.15-21.65 59.15 0Z" opacity="1" transform="matrix(1,0,0,1,0,0)" fill="#282828" class="undefined-text-0" data-fill-palette-color="quaternary" id="text-0"></path></svg></g></svg></g></svg></g></svg></g></svg></g></svg></g></svg></g><defs></defs></svg><rect width="576" height="360" fill="none" stroke="none" visibility="hidden"></rect></g></svg></g></svg>